<svg width="1402" height="96" viewBox="0 0 1402 96" fill="none" xmlns="http://www.w3.org/2000/svg">
<mask id="path-1-outside-1_2_3" maskUnits="userSpaceOnUse" x="-3" y="-3" width="1407" height="101" fill="black">
<rect fill="white" x="-3" y="-3" width="1407" height="101"/>
<path d="M10.7 9V6H77.6L52.1 76.1L39.1 40.5L26.2 76.1L0.7 6H3.9L26.2 67.3L39.1 31.7L52.1 67.3L73.3 9H10.7ZM127.573 70.1C123.907 74.7 117.907 77 109.573 77C101.24 77 95.2734 74.6333 91.6734 69.9C88.0734 65.1667 86.2734 57.5333 86.2734 47C86.2734 36.4667 88.0734 28.8333 91.6734 24.1C95.2734 19.3667 101.24 17 109.573 17C119.24 17 125.807 20.1667 129.273 26.5L104.773 47H100.073L125.373 25.9C122.44 21.9667 117.173 20 109.573 20C106.24 20 103.44 20.3667 101.173 21.1C98.9068 21.7667 96.8068 23.0667 94.8734 25C93.0068 26.8667 91.6068 29.6333 90.6734 33.3C89.7401 36.9 89.2734 41.4667 89.2734 47C89.2734 52.5333 89.7401 57.1333 90.6734 60.8C91.6068 64.4 93.0068 67.1667 94.8734 69.1C96.8068 70.9667 98.9068 72.2667 101.173 73C103.44 73.6667 106.24 74 109.573 74C117.173 74 122.44 72.0333 125.373 68.1L127.573 70.1ZM176.959 73V76H143.559V18H146.559V73H176.959ZM191.38 69.9C187.78 65.1667 185.98 57.5333 185.98 47C185.98 36.4667 187.78 28.8333 191.38 24.1C194.98 19.3667 200.947 17 209.28 17C217.614 17 223.614 19.3 227.28 23.9L225.08 25.9C222.147 21.9667 216.88 20 209.28 20C205.947 20 203.147 20.3667 200.88 21.1C198.614 21.7667 196.514 23.0667 194.58 25C192.714 26.8667 191.314 29.6333 190.38 33.3C189.447 36.9 188.98 41.4667 188.98 47C188.98 52.5333 189.447 57.1333 190.38 60.8C191.314 64.4 192.714 67.1667 194.58 69.1C196.514 70.9667 198.614 72.2667 200.88 73C203.147 73.6667 205.947 74 209.28 74C216.88 74 222.147 72.0333 225.08 68.1L227.28 70.1C223.614 74.7 217.614 77 209.28 77C200.947 77 194.98 74.6333 191.38 69.9ZM271.391 21.1C269.125 20.3667 266.325 20 262.991 20C259.658 20 256.858 20.3667 254.591 21.1C252.325 21.7667 250.225 23.0667 248.291 25C246.425 26.8667 245.025 29.6333 244.091 33.3C243.158 36.9 242.691 41.4667 242.691 47C242.691 52.5333 243.158 57.1333 244.091 60.8C245.025 64.4 246.425 67.1667 248.291 69.1C250.225 70.9667 252.325 72.2667 254.591 73C256.858 73.6667 259.658 74 262.991 74C266.325 74 269.125 73.6667 271.391 73C273.658 72.2667 275.725 70.9667 277.591 69.1C279.525 67.1667 280.958 64.4 281.891 60.8C282.825 57.1333 283.291 52.5333 283.291 47C283.291 41.4667 282.825 36.9 281.891 33.3C280.958 29.6333 279.525 26.8667 277.591 25C275.725 23.0667 273.658 21.7667 271.391 21.1ZM280.891 69.9C277.291 74.6333 271.325 77 262.991 77C254.658 77 248.691 74.6333 245.091 69.9C241.491 65.1667 239.691 57.5333 239.691 47C239.691 36.4667 241.491 28.8333 245.091 24.1C248.691 19.3667 254.658 17 262.991 17C271.325 17 277.291 19.3667 280.891 24.1C284.491 28.8333 286.291 36.4667 286.291 47C286.291 57.5333 284.491 65.1667 280.891 69.9ZM312.236 73H350.836V22.2L328.336 44.7L305.836 22.2V76L302.836 75.9V18H305.836L328.336 40.5L350.836 18H353.836V76L312.236 75.9V73ZM411.655 70.1C407.989 74.7 401.989 77 393.655 77C385.322 77 379.355 74.6333 375.755 69.9C372.155 65.1667 370.355 57.5333 370.355 47C370.355 36.4667 372.155 28.8333 375.755 24.1C379.355 19.3667 385.322 17 393.655 17C403.322 17 409.889 20.1667 413.355 26.5L388.855 47H384.155L409.455 25.9C406.522 21.9667 401.255 20 393.655 20C390.322 20 387.522 20.3667 385.255 21.1C382.989 21.7667 380.889 23.0667 378.955 25C377.089 26.8667 375.689 29.6333 374.755 33.3C373.822 36.9 373.355 41.4667 373.355 47C373.355 52.5333 373.822 57.1333 374.755 60.8C375.689 64.4 377.089 67.1667 378.955 69.1C380.889 70.9667 382.989 72.2667 385.255 73C387.522 73.6667 390.322 74 393.655 74C401.255 74 406.522 72.0333 409.455 68.1L411.655 70.1ZM494.633 18V21H473.633V76H470.633V21H449.633V18H494.633ZM535.356 21.1C533.09 20.3667 530.29 20 526.956 20C523.623 20 520.823 20.3667 518.556 21.1C516.29 21.7667 514.19 23.0667 512.256 25C510.39 26.8667 508.99 29.6333 508.056 33.3C507.123 36.9 506.656 41.4667 506.656 47C506.656 52.5333 507.123 57.1333 508.056 60.8C508.99 64.4 510.39 67.1667 512.256 69.1C514.19 70.9667 516.29 72.2667 518.556 73C520.823 73.6667 523.623 74 526.956 74C530.29 74 533.09 73.6667 535.356 73C537.623 72.2667 539.69 70.9667 541.556 69.1C543.49 67.1667 544.923 64.4 545.856 60.8C546.79 57.1333 547.256 52.5333 547.256 47C547.256 41.4667 546.79 36.9 545.856 33.3C544.923 29.6333 543.49 26.8667 541.556 25C539.69 23.0667 537.623 21.7667 535.356 21.1ZM544.856 69.9C541.256 74.6333 535.29 77 526.956 77C518.623 77 512.656 74.6333 509.056 69.9C505.456 65.1667 503.656 57.5333 503.656 47C503.656 36.4667 505.456 28.8333 509.056 24.1C512.656 19.3667 518.623 17 526.956 17C535.29 17 541.256 19.3667 544.856 24.1C548.456 28.8333 550.256 36.4667 550.256 47C550.256 57.5333 548.456 65.1667 544.856 69.9ZM605.293 73H644.693V13.1L622.193 61.3L599.693 13V76L596.693 75.9V5.9H599.693L622.193 54.2L644.693 6L647.693 5.9V76L605.293 75.9V73ZM670.594 18H709.294L685.794 73.5V96H682.794V73.5L659.294 18H662.494L684.294 69.3L704.794 21H670.594V18ZM792.404 76H789.404V41H753.404V76H750.404V6H753.404V38H789.404V6H792.404V76ZM811.82 18H814.82V76H811.82V18ZM858.593 54.4L857.093 51.8L862.693 48.6C867.293 46.0667 869.593 42.0333 869.593 36.5C869.593 26.1667 861.726 21 845.993 21H836.793V96H833.793V18H845.993C854.793 18 861.426 19.6333 865.893 22.9C870.36 26.1 872.593 30.6333 872.593 36.5C872.593 43.1667 869.793 48.0667 864.193 51.2L858.593 54.4ZM911.523 54.4L910.023 51.8L915.623 48.6C920.223 46.0667 922.523 42.0333 922.523 36.5C922.523 26.1667 914.656 21 898.923 21H889.723V96H886.723V18H898.923C907.723 18 914.356 19.6333 918.823 22.9C923.289 26.1 925.523 30.6333 925.523 36.5C925.523 43.1667 922.723 48.0667 917.123 51.2L911.523 54.4ZM968.852 21.1C966.586 20.3667 963.786 20 960.452 20C957.119 20 954.319 20.3667 952.052 21.1C949.786 21.7667 947.686 23.0667 945.752 25C943.886 26.8667 942.486 29.6333 941.552 33.3C940.619 36.9 940.152 41.4667 940.152 47C940.152 52.5333 940.619 57.1333 941.552 60.8C942.486 64.4 943.886 67.1667 945.752 69.1C947.686 70.9667 949.786 72.2667 952.052 73C954.319 73.6667 957.119 74 960.452 74C963.786 74 966.586 73.6667 968.852 73C971.119 72.2667 973.186 70.9667 975.052 69.1C976.986 67.1667 978.419 64.4 979.352 60.8C980.286 57.1333 980.752 52.5333 980.752 47C980.752 41.4667 980.286 36.9 979.352 33.3C978.419 29.6333 976.986 26.8667 975.052 25C973.186 23.0667 971.119 21.7667 968.852 21.1ZM978.352 69.9C974.752 74.6333 968.786 77 960.452 77C952.119 77 946.152 74.6333 942.552 69.9C938.952 65.1667 937.152 57.5333 937.152 47C937.152 36.4667 938.952 28.8333 942.552 24.1C946.152 19.3667 952.119 17 960.452 17C968.786 17 974.752 19.3667 978.352 24.1C981.952 28.8333 983.752 36.4667 983.752 47C983.752 57.5333 981.952 65.1667 978.352 69.9ZM1003.2 69.9C999.597 65.1667 997.797 57.5333 997.797 47C997.797 36.4667 999.597 28.8333 1003.2 24.1C1006.8 19.3667 1012.76 17 1021.1 17C1029.43 17 1035.43 19.3 1039.1 23.9L1036.9 25.9C1033.96 21.9667 1028.7 20 1021.1 20C1017.76 20 1014.96 20.3667 1012.7 21.1C1010.43 21.7667 1008.33 23.0667 1006.4 25C1004.53 26.8667 1003.13 29.6333 1002.2 33.3C1001.26 36.9 1000.8 41.4667 1000.8 47C1000.8 52.5333 1001.26 57.1333 1002.2 60.8C1003.13 64.4 1004.53 67.1667 1006.4 69.1C1008.33 70.9667 1010.43 72.2667 1012.7 73C1014.96 73.6667 1017.76 74 1021.1 74C1028.7 74 1033.96 72.0333 1036.9 68.1L1039.1 70.1C1035.43 74.7 1029.43 77 1021.1 77C1012.76 77 1006.8 74.6333 1003.2 69.9ZM1059.31 73H1091.91L1071.41 24.7L1049.61 76H1046.41L1071.41 17L1096.41 76H1059.31V73ZM1117.22 73H1155.82V22.2L1133.32 44.7L1110.82 22.2V76L1107.82 75.9V18H1110.82L1133.32 40.5L1155.82 18H1158.82V76L1117.22 75.9V73ZM1202.64 54.4L1201.14 51.8L1206.74 48.6C1211.34 46.0667 1213.64 42.0333 1213.64 36.5C1213.64 26.1667 1205.77 21 1190.04 21H1180.84V96H1177.84V18H1190.04C1198.84 18 1205.47 19.6333 1209.94 22.9C1214.4 26.1 1216.64 30.6333 1216.64 36.5C1216.64 43.1667 1213.84 48.0667 1208.24 51.2L1202.64 54.4ZM1232.77 18V47C1232.77 56.9333 1234.33 63.9333 1237.47 68C1240.67 72 1245.03 74 1250.57 74C1256.1 74 1260.43 72 1263.57 68C1266.77 63.9333 1268.37 56.9333 1268.37 47V18H1271.37V47C1271.37 67 1264.43 77 1250.57 77C1236.7 77 1229.77 67 1229.77 47V18H1232.77ZM1304.66 16.8C1312.93 16.8 1318.79 18.6333 1322.26 22.3L1320.26 24.5C1317.06 21.3667 1311.99 19.8 1305.06 19.8C1294.66 19.8 1289.46 23.9333 1289.46 32.2C1289.46 35.4 1290.73 37.9667 1293.26 39.9C1295.79 41.7667 1298.86 43.2 1302.46 44.2C1306.13 45.2 1309.76 46.2667 1313.36 47.4C1317.03 48.4667 1320.13 50.2333 1322.66 52.7C1325.19 55.1 1326.46 58.2667 1326.46 62.2C1326.46 66.8 1324.56 70.4667 1320.76 73.2C1316.96 75.9333 1311.46 77.3 1304.26 77.3C1300.73 77.3 1297.23 76.8333 1293.76 75.9C1290.36 74.9667 1287.83 73.6 1286.16 71.8L1288.16 69.6C1291.56 72.7333 1296.79 74.3 1303.86 74.3C1310.33 74.3 1315.19 73.1 1318.46 70.7C1321.79 68.3 1323.46 65.5 1323.46 62.3C1323.46 58.9667 1322.19 56.2667 1319.66 54.2C1317.13 52.1333 1314.03 50.6 1310.36 49.6C1306.76 48.5333 1303.13 47.4667 1299.46 46.4C1295.86 45.2667 1292.79 43.5333 1290.26 41.2C1287.73 38.8667 1286.46 35.8 1286.46 32C1286.46 26.8667 1288.16 23.0667 1291.56 20.6C1295.03 18.0667 1299.39 16.8 1304.66 16.8ZM1369.91 60.2H1376.51V66H1369.91V60.2ZM1369.91 40.2H1376.51V46H1369.91V40.2ZM1401.73 28.1V53.9C1401.73 67.9 1398.56 77.0667 1392.23 81.4L1390.33 79C1395.93 75.2 1398.73 66.8333 1398.73 53.9V28.1C1398.73 15.1667 1395.93 6.8 1390.33 3L1392.23 0.599999C1398.56 4.93333 1401.73 14.1 1401.73 28.1Z"/>
</mask>
<path d="M10.7 9H8.7V11H10.7V9ZM10.7 6V4H8.7V6H10.7ZM77.6 6L79.4795 6.6837L80.4557 4H77.6V6ZM52.1 76.1L50.2213 76.786L52.1036 81.9406L53.9795 76.7837L52.1 76.1ZM39.1 40.5L40.9787 39.814L39.0927 34.6495L37.2196 39.8186L39.1 40.5ZM26.2 76.1L24.3205 76.7837L26.2036 81.9605L28.0804 76.7814L26.2 76.1ZM0.7 6V4H-2.15575L-1.17951 6.6837L0.7 6ZM3.9 6L5.7795 5.31626L5.30066 4H3.9V6ZM26.2 67.3L24.3205 67.9837L26.2037 73.1604L28.0804 67.9814L26.2 67.3ZM39.1 31.7L40.9787 31.014L39.0927 25.8495L37.2196 31.0186L39.1 31.7ZM52.1 67.3L50.2213 67.986L52.104 73.1415L53.9796 67.9835L52.1 67.3ZM73.3 9L75.1796 9.68348L76.1554 7H73.3V9ZM12.7 9V6H8.7V9H12.7ZM10.7 8H77.6V4H10.7V8ZM75.7205 5.31629L50.2205 75.4163L53.9795 76.7837L79.4795 6.6837L75.7205 5.31629ZM53.9787 75.414L40.9787 39.814L37.2213 41.186L50.2213 76.786L53.9787 75.414ZM37.2196 39.8186L24.3196 75.4186L28.0804 76.7814L40.9804 41.1814L37.2196 39.8186ZM28.0795 75.4163L2.57951 5.31629L-1.17951 6.6837L24.3205 76.7837L28.0795 75.4163ZM0.7 8H3.9V4H0.7V8ZM2.0205 6.68373L24.3205 67.9837L28.0795 66.6163L5.7795 5.31626L2.0205 6.68373ZM28.0804 67.9814L40.9804 32.3814L37.2196 31.0186L24.3196 66.6186L28.0804 67.9814ZM37.2213 32.386L50.2213 67.986L53.9787 66.614L40.9787 31.014L37.2213 32.386ZM53.9796 67.9835L75.1796 9.68348L71.4204 8.31651L50.2204 66.6165L53.9796 67.9835ZM73.3 7H10.7V11H73.3V7ZM127.573 70.1L129.137 71.3466L130.306 69.8809L128.919 68.6201L127.573 70.1ZM91.6734 69.9L93.2653 68.6893L93.2653 68.6893L91.6734 69.9ZM91.6734 24.1L90.0815 22.8893L90.0815 22.8893L91.6734 24.1ZM129.273 26.5L130.557 28.0339L131.816 26.9801L131.028 25.5397L129.273 26.5ZM104.773 47V49H105.5L106.057 48.5339L104.773 47ZM100.073 47L98.7925 45.4641L94.5527 49H100.073V47ZM125.373 25.9L126.654 27.4359L128.109 26.2228L126.977 24.7043L125.373 25.9ZM101.173 21.1L101.738 23.0187L101.764 23.0112L101.789 23.0029L101.173 21.1ZM94.8734 25L93.4592 23.5858L93.4592 23.5858L94.8734 25ZM90.6734 33.3L92.6095 33.8019L92.6116 33.7934L90.6734 33.3ZM90.6734 60.8L88.7352 61.2934L88.7374 61.3019L90.6734 60.8ZM94.8734 69.1L93.4346 70.4892L93.459 70.5144L93.4842 70.5388L94.8734 69.1ZM101.173 73L100.558 74.9029L100.583 74.9112L100.609 74.9187L101.173 73ZM125.373 68.1L126.719 66.6201L125.088 65.1375L123.77 66.9044L125.373 68.1ZM126.009 68.8534C122.862 72.8022 117.564 75 109.573 75V79C118.25 79 124.952 76.5978 129.137 71.3466L126.009 68.8534ZM109.573 75C101.599 75 96.3507 72.746 93.2653 68.6893L90.0815 71.1107C94.1961 76.5207 100.882 79 109.573 79V75ZM93.2653 68.6893C90.0671 64.4842 88.2734 57.3953 88.2734 47H84.2734C84.2734 57.6713 86.0798 65.8491 90.0815 71.1107L93.2653 68.6893ZM88.2734 47C88.2734 36.6047 90.0671 29.5158 93.2653 25.3107L90.0815 22.8893C86.0798 28.1509 84.2734 36.3287 84.2734 47H88.2734ZM93.2653 25.3107C96.3507 21.254 101.599 19 109.573 19V15C100.882 15 94.1961 17.4793 90.0815 22.8893L93.2653 25.3107ZM109.573 19C118.794 19 124.521 21.9838 127.519 27.4603L131.028 25.5397C127.092 18.3495 119.687 15 109.573 15V19ZM127.99 24.9661L103.49 45.4661L106.057 48.5339L130.557 28.0339L127.99 24.9661ZM104.773 45H100.073V49H104.773V45ZM101.354 48.5359L126.654 27.4359L124.092 24.3641L98.7925 45.4641L101.354 48.5359ZM126.977 24.7043C123.495 20.0355 117.45 18 109.573 18V22C116.897 22 121.385 23.8978 123.77 27.0956L126.977 24.7043ZM109.573 18C106.108 18 103.085 18.3794 100.558 19.1971L101.789 23.0029C103.795 22.3539 106.372 22 109.573 22V18ZM100.609 19.1813C97.9741 19.9563 95.5917 21.4533 93.4592 23.5858L96.2877 26.4142C98.0218 24.68 99.8394 23.5771 101.738 23.0187L100.609 19.1813ZM93.4592 23.5858C91.2513 25.7937 89.721 28.9341 88.7352 32.8066L92.6116 33.7934C93.4926 30.3326 94.7623 27.9396 96.2877 26.4142L93.4592 23.5858ZM88.7374 32.7981C87.7464 36.6207 87.2734 41.3711 87.2734 47H91.2734C91.2734 41.5622 91.7338 37.1793 92.6094 33.8019L88.7374 32.7981ZM87.2734 47C87.2734 52.6306 87.7467 57.4099 88.7352 61.2934L92.6116 60.3066C91.7335 56.8567 91.2734 52.4361 91.2734 47H87.2734ZM88.7374 61.3019C89.7257 65.1136 91.2541 68.2307 93.4346 70.4892L96.3122 67.7108C94.7595 66.1026 93.4879 63.6864 92.6094 60.2981L88.7374 61.3019ZM93.4842 70.5388C95.6085 72.5898 97.9661 74.0644 100.558 74.9029L101.789 71.0971C99.8474 70.4689 98.0051 69.3436 96.2626 67.6612L93.4842 70.5388ZM100.609 74.9187C103.117 75.6564 106.121 76 109.573 76V72C106.359 72 103.763 71.677 101.738 71.0813L100.609 74.9187ZM109.573 76C117.45 76 123.495 73.9645 126.977 69.2956L123.77 66.9044C121.385 70.1022 116.897 72 109.573 72V76ZM124.028 69.5799L126.228 71.5799L128.919 68.6201L126.719 66.6201L124.028 69.5799ZM176.959 73H178.959V71H176.959V73ZM176.959 76V78H178.959V76H176.959ZM143.559 76H141.559V78H143.559V76ZM143.559 18V16H141.559V18H143.559ZM146.559 18H148.559V16H146.559V18ZM146.559 73H144.559V75H146.559V73ZM174.959 73V76H178.959V73H174.959ZM176.959 74H143.559V78H176.959V74ZM145.559 76V18H141.559V76H145.559ZM143.559 20H146.559V16H143.559V20ZM144.559 18V73H148.559V18H144.559ZM146.559 75H176.959V71H146.559V75ZM191.38 69.9L192.972 68.6893L192.972 68.6893L191.38 69.9ZM191.38 24.1L189.789 22.8893L189.789 22.8893L191.38 24.1ZM227.28 23.9L228.626 25.3799L230.013 24.1191L228.844 22.6534L227.28 23.9ZM225.08 25.9L223.477 27.0956L224.795 28.8625L226.426 27.3799L225.08 25.9ZM200.88 21.1L201.445 23.0187L201.471 23.0112L201.496 23.0029L200.88 21.1ZM194.58 25L193.166 23.5858L193.166 23.5858L194.58 25ZM190.38 33.3L192.316 33.8019L192.319 33.7934L190.38 33.3ZM190.38 60.8L188.442 61.2934L188.444 61.3019L190.38 60.8ZM194.58 69.1L193.142 70.4892L193.166 70.5144L193.191 70.5388L194.58 69.1ZM200.88 73L200.265 74.9029L200.29 74.9112L200.316 74.9187L200.88 73ZM225.08 68.1L226.426 66.6201L224.795 65.1375L223.477 66.9044L225.08 68.1ZM227.28 70.1L228.844 71.3466L230.013 69.8809L228.626 68.6201L227.28 70.1ZM192.972 68.6893C189.774 64.4842 187.98 57.3953 187.98 47H183.98C183.98 57.6713 185.787 65.8491 189.789 71.1107L192.972 68.6893ZM187.98 47C187.98 36.6047 189.774 29.5158 192.972 25.3107L189.789 22.8893C185.787 28.1509 183.98 36.3287 183.98 47H187.98ZM192.972 25.3107C196.058 21.254 201.306 19 209.28 19V15C200.589 15 193.903 17.4793 189.789 22.8893L192.972 25.3107ZM209.28 19C217.271 19 222.569 21.1978 225.717 25.1466L228.844 22.6534C224.659 17.4022 217.957 15 209.28 15V19ZM225.935 22.4201L223.735 24.4201L226.426 27.3799L228.626 25.3799L225.935 22.4201ZM226.684 24.7043C223.202 20.0355 217.157 18 209.28 18V22C216.604 22 221.092 23.8978 223.477 27.0956L226.684 24.7043ZM209.28 18C205.815 18 202.792 18.3794 200.265 19.1971L201.496 23.0029C203.502 22.3539 206.079 22 209.28 22V18ZM200.316 19.1813C197.681 19.9563 195.299 21.4533 193.166 23.5858L195.995 26.4142C197.729 24.68 199.546 23.5771 201.445 23.0187L200.316 19.1813ZM193.166 23.5858C190.958 25.7937 189.428 28.9341 188.442 32.8066L192.319 33.7934C193.2 30.3326 194.469 27.9396 195.995 26.4142L193.166 23.5858ZM188.444 32.7981C187.453 36.6207 186.98 41.3711 186.98 47H190.98C190.98 41.5622 191.441 37.1793 192.316 33.8019L188.444 32.7981ZM186.98 47C186.98 52.6306 187.454 57.4099 188.442 61.2934L192.319 60.3066C191.441 56.8567 190.98 52.4361 190.98 47H186.98ZM188.444 61.3019C189.433 65.1136 190.961 68.2307 193.142 70.4892L196.019 67.7108C194.467 66.1026 193.195 63.6864 192.316 60.2981L188.444 61.3019ZM193.191 70.5388C195.316 72.5898 197.673 74.0644 200.265 74.9029L201.496 71.0971C199.554 70.4689 197.712 69.3436 195.97 67.6612L193.191 70.5388ZM200.316 74.9187C202.824 75.6564 205.828 76 209.28 76V72C206.066 72 203.47 71.677 201.445 71.0813L200.316 74.9187ZM209.28 76C217.157 76 223.202 73.9645 226.684 69.2956L223.477 66.9044C221.092 70.1022 216.604 72 209.28 72V76ZM223.735 69.5799L225.935 71.5799L228.626 68.6201L226.426 66.6201L223.735 69.5799ZM225.717 68.8534C222.569 72.8022 217.271 75 209.28 75V79C217.957 79 224.659 76.5978 228.844 71.3466L225.717 68.8534ZM209.28 75C201.306 75 196.058 72.746 192.972 68.6893L189.789 71.1107C193.903 76.5207 200.589 79 209.28 79V75ZM271.391 21.1L270.776 23.0029L270.801 23.0112L270.827 23.0187L271.391 21.1ZM254.591 21.1L255.156 23.0187L255.181 23.0112L255.207 23.0029L254.591 21.1ZM248.291 25L246.877 23.5858L246.877 23.5858L248.291 25ZM244.091 33.3L246.027 33.8019L246.03 33.7934L244.091 33.3ZM244.091 60.8L242.153 61.2934L242.155 61.3019L244.091 60.8ZM248.291 69.1L246.853 70.4892L246.877 70.5144L246.902 70.5388L248.291 69.1ZM254.591 73L253.976 74.9029L254.001 74.9112L254.027 74.9187L254.591 73ZM271.391 73L271.956 74.9187L271.982 74.9112L272.007 74.9029L271.391 73ZM277.591 69.1L279.006 70.5142L279.006 70.5142L277.591 69.1ZM281.891 60.8L283.827 61.3019L283.83 61.2934L281.891 60.8ZM281.891 33.3L279.953 33.7934L279.955 33.8019L281.891 33.3ZM277.591 25L276.153 26.3892L276.177 26.4144L276.202 26.4388L277.591 25ZM280.891 69.9L279.3 68.6893L279.3 68.6893L280.891 69.9ZM245.091 69.9L246.683 68.6893L246.683 68.6893L245.091 69.9ZM245.091 24.1L243.5 22.8893L243.5 22.8893L245.091 24.1ZM280.891 24.1L282.483 22.8893L282.483 22.8893L280.891 24.1ZM272.007 19.1971C269.48 18.3794 266.457 18 262.991 18V22C266.192 22 268.77 22.3539 270.776 23.0029L272.007 19.1971ZM262.991 18C259.526 18 256.503 18.3794 253.976 19.1971L255.207 23.0029C257.213 22.3539 259.79 22 262.991 22V18ZM254.027 19.1813C251.392 19.9563 249.01 21.4533 246.877 23.5858L249.706 26.4142C251.44 24.68 253.257 23.5771 255.156 23.0187L254.027 19.1813ZM246.877 23.5858C244.669 25.7937 243.139 28.9341 242.153 32.8066L246.03 33.7934C246.911 30.3326 248.18 27.9396 249.706 26.4142L246.877 23.5858ZM242.155 32.7981C241.164 36.6207 240.691 41.3711 240.691 47H244.691C244.691 41.5622 245.152 37.1793 246.027 33.8019L242.155 32.7981ZM240.691 47C240.691 52.6306 241.165 57.4099 242.153 61.2934L246.03 60.3066C245.151 56.8567 244.691 52.4361 244.691 47H240.691ZM242.155 61.3019C243.144 65.1136 244.672 68.2307 246.853 70.4892L249.73 67.7108C248.177 66.1026 246.906 63.6864 246.027 60.2981L242.155 61.3019ZM246.902 70.5388C249.026 72.5898 251.384 74.0644 253.976 74.9029L255.207 71.0971C253.265 70.4689 251.423 69.3436 249.681 67.6612L246.902 70.5388ZM254.027 74.9187C256.535 75.6564 259.539 76 262.991 76V72C259.777 72 257.181 71.677 255.156 71.0813L254.027 74.9187ZM262.991 76C266.444 76 269.448 75.6564 271.956 74.9187L270.827 71.0813C268.802 71.677 266.205 72 262.991 72V76ZM272.007 74.9029C274.606 74.062 276.94 72.5801 279.006 70.5142L276.177 67.6858C274.51 69.3532 272.71 70.4713 270.776 71.0971L272.007 74.9029ZM279.006 70.5142C281.266 68.2538 282.836 65.1275 283.827 61.3019L279.955 60.2981C279.081 63.6725 277.783 66.0796 276.177 67.6858L279.006 70.5142ZM283.83 61.2934C284.818 57.4099 285.291 52.6306 285.291 47H281.291C281.291 52.4361 280.831 56.8567 279.953 60.3066L283.83 61.2934ZM285.291 47C285.291 41.3711 284.818 36.6207 283.827 32.7981L279.955 33.8019C280.831 37.1793 281.291 41.5622 281.291 47H285.291ZM283.83 32.8066C282.84 28.92 281.269 25.7706 278.981 23.5612L276.202 26.4388C277.781 27.9627 279.076 30.3466 279.953 33.7934L283.83 32.8066ZM279.03 23.6108C276.956 21.463 274.598 19.9585 271.956 19.1813L270.827 23.0187C272.718 23.5748 274.493 24.6703 276.153 26.3892L279.03 23.6108ZM279.3 68.6893C276.214 72.746 270.966 75 262.991 75V79C271.683 79 278.369 76.5207 282.483 71.1107L279.3 68.6893ZM262.991 75C255.017 75 249.769 72.746 246.683 68.6893L243.5 71.1107C247.614 76.5207 254.3 79 262.991 79V75ZM246.683 68.6893C243.485 64.4842 241.691 57.3953 241.691 47H237.691C237.691 57.6713 239.498 65.8491 243.5 71.1107L246.683 68.6893ZM241.691 47C241.691 36.6047 243.485 29.5158 246.683 25.3107L243.5 22.8893C239.498 28.1509 237.691 36.3287 237.691 47H241.691ZM246.683 25.3107C249.769 21.254 255.017 19 262.991 19V15C254.3 15 247.614 17.4793 243.5 22.8893L246.683 25.3107ZM262.991 19C270.966 19 276.214 21.254 279.3 25.3107L282.483 22.8893C278.369 17.4793 271.683 15 262.991 15V19ZM279.3 25.3107C282.498 29.5158 284.291 36.6047 284.291 47H288.291C288.291 36.3287 286.485 28.1509 282.483 22.8893L279.3 25.3107ZM284.291 47C284.291 57.3953 282.498 64.4842 279.3 68.6893L282.483 71.1107C286.485 65.8491 288.291 57.6713 288.291 47H284.291ZM312.236 73V71H310.236V73H312.236ZM350.836 73V75H352.836V73H350.836ZM350.836 22.2H352.836V17.3716L349.422 20.7858L350.836 22.2ZM328.336 44.7L326.922 46.1142L328.336 47.5284L329.75 46.1142L328.336 44.7ZM305.836 22.2L307.25 20.7858L303.836 17.3716V22.2H305.836ZM305.836 76L305.769 77.9989L307.836 78.0678V76H305.836ZM302.836 75.9H300.836V77.8344L302.769 77.8989L302.836 75.9ZM302.836 18V16H300.836V18H302.836ZM305.836 18L307.25 16.5858L306.664 16H305.836V18ZM328.336 40.5L326.922 41.9142L328.336 43.3284L329.75 41.9142L328.336 40.5ZM350.836 18V16H350.008L349.422 16.5858L350.836 18ZM353.836 18H355.836V16H353.836V18ZM353.836 76L353.831 78L355.836 78.0048V76H353.836ZM312.236 75.9H310.236V77.8952L312.231 77.9L312.236 75.9ZM312.236 75H350.836V71H312.236V75ZM352.836 73V22.2H348.836V73H352.836ZM349.422 20.7858L326.922 43.2858L329.75 46.1142L352.25 23.6142L349.422 20.7858ZM329.75 43.2858L307.25 20.7858L304.422 23.6142L326.922 46.1142L329.75 43.2858ZM303.836 22.2V76H307.836V22.2H303.836ZM305.903 74.0011L302.903 73.9011L302.769 77.8989L305.769 77.9989L305.903 74.0011ZM304.836 75.9V18H300.836V75.9H304.836ZM302.836 20H305.836V16H302.836V20ZM304.422 19.4142L326.922 41.9142L329.75 39.0858L307.25 16.5858L304.422 19.4142ZM329.75 41.9142L352.25 19.4142L349.422 16.5858L326.922 39.0858L329.75 41.9142ZM350.836 20H353.836V16H350.836V20ZM351.836 18V76H355.836V18H351.836ZM353.841 74L312.241 73.9L312.231 77.9L353.831 78L353.841 74ZM314.236 75.9V73H310.236V75.9H314.236ZM411.655 70.1L413.219 71.3466L414.388 69.8809L413.001 68.6201L411.655 70.1ZM375.755 69.9L377.347 68.6893L377.347 68.6893L375.755 69.9ZM375.755 24.1L374.164 22.8893L374.164 22.8893L375.755 24.1ZM413.355 26.5L414.639 28.0339L415.898 26.9801L415.11 25.5397L413.355 26.5ZM388.855 47V49H389.582L390.139 48.5339L388.855 47ZM384.155 47L382.875 45.4641L378.635 49H384.155V47ZM409.455 25.9L410.736 27.4359L412.191 26.2228L411.059 24.7043L409.455 25.9ZM385.255 21.1L385.82 23.0187L385.846 23.0112L385.871 23.0029L385.255 21.1ZM378.955 25L377.541 23.5858L377.541 23.5858L378.955 25ZM374.755 33.3L376.691 33.8019L376.694 33.7934L374.755 33.3ZM374.755 60.8L372.817 61.2934L372.819 61.3019L374.755 60.8ZM378.955 69.1L377.517 70.4892L377.541 70.5144L377.566 70.5388L378.955 69.1ZM385.255 73L384.64 74.9029L384.665 74.9112L384.691 74.9187L385.255 73ZM409.455 68.1L410.801 66.6201L409.17 65.1375L407.852 66.9044L409.455 68.1ZM410.092 68.8534C406.944 72.8022 401.646 75 393.655 75V79C402.332 79 409.034 76.5978 413.219 71.3466L410.092 68.8534ZM393.655 75C385.681 75 380.433 72.746 377.347 68.6893L374.164 71.1107C378.278 76.5207 384.964 79 393.655 79V75ZM377.347 68.6893C374.149 64.4842 372.355 57.3953 372.355 47H368.355C368.355 57.6713 370.162 65.8491 374.164 71.1107L377.347 68.6893ZM372.355 47C372.355 36.6047 374.149 29.5158 377.347 25.3107L374.164 22.8893C370.162 28.1509 368.355 36.3287 368.355 47H372.355ZM377.347 25.3107C380.433 21.254 385.681 19 393.655 19V15C384.964 15 378.278 17.4793 374.164 22.8893L377.347 25.3107ZM393.655 19C402.876 19 408.603 21.9838 411.601 27.4603L415.11 25.5397C411.174 18.3495 403.769 15 393.655 15V19ZM412.072 24.9661L387.572 45.4661L390.139 48.5339L414.639 28.0339L412.072 24.9661ZM388.855 45H384.155V49H388.855V45ZM385.436 48.5359L410.736 27.4359L408.175 24.3641L382.875 45.4641L385.436 48.5359ZM411.059 24.7043C407.577 20.0355 401.532 18 393.655 18V22C400.979 22 405.467 23.8978 407.852 27.0956L411.059 24.7043ZM393.655 18C390.19 18 387.167 18.3794 384.64 19.1971L385.871 23.0029C387.877 22.3539 390.454 22 393.655 22V18ZM384.691 19.1813C382.056 19.9563 379.674 21.4533 377.541 23.5858L380.37 26.4142C382.104 24.68 383.921 23.5771 385.82 23.0187L384.691 19.1813ZM377.541 23.5858C375.333 25.7937 373.803 28.9341 372.817 32.8066L376.694 33.7934C377.575 30.3326 378.844 27.9396 380.37 26.4142L377.541 23.5858ZM372.819 32.7981C371.828 36.6207 371.355 41.3711 371.355 47H375.355C375.355 41.5622 375.816 37.1793 376.691 33.8019L372.819 32.7981ZM371.355 47C371.355 52.6306 371.829 57.4099 372.817 61.2934L376.694 60.3066C375.816 56.8567 375.355 52.4361 375.355 47H371.355ZM372.819 61.3019C373.808 65.1136 375.336 68.2307 377.517 70.4892L380.394 67.7108C378.842 66.1026 377.57 63.6864 376.691 60.2981L372.819 61.3019ZM377.566 70.5388C379.691 72.5898 382.048 74.0644 384.64 74.9029L385.871 71.0971C383.929 70.4689 382.087 69.3436 380.345 67.6612L377.566 70.5388ZM384.691 74.9187C387.199 75.6564 390.203 76 393.655 76V72C390.441 72 387.845 71.677 385.82 71.0813L384.691 74.9187ZM393.655 76C401.532 76 407.577 73.9645 411.059 69.2956L407.852 66.9044C405.467 70.1022 400.979 72 393.655 72V76ZM408.11 69.5799L410.31 71.5799L413.001 68.6201L410.801 66.6201L408.11 69.5799ZM494.633 18H496.633V16H494.633V18ZM494.633 21V23H496.633V21H494.633ZM473.633 21V19H471.633V21H473.633ZM473.633 76V78H475.633V76H473.633ZM470.633 76H468.633V78H470.633V76ZM470.633 21H472.633V19H470.633V21ZM449.633 21H447.633V23H449.633V21ZM449.633 18V16H447.633V18H449.633ZM492.633 18V21H496.633V18H492.633ZM494.633 19H473.633V23H494.633V19ZM471.633 21V76H475.633V21H471.633ZM473.633 74H470.633V78H473.633V74ZM472.633 76V21H468.633V76H472.633ZM470.633 19H449.633V23H470.633V19ZM451.633 21V18H447.633V21H451.633ZM449.633 20H494.633V16H449.633V20ZM535.356 21.1L534.741 23.0029L534.766 23.0112L534.792 23.0187L535.356 21.1ZM518.556 21.1L519.121 23.0187L519.146 23.0112L519.172 23.0029L518.556 21.1ZM512.256 25L510.842 23.5858L510.842 23.5858L512.256 25ZM508.056 33.3L509.992 33.8019L509.994 33.7934L508.056 33.3ZM508.056 60.8L506.118 61.2934L506.12 61.3019L508.056 60.8ZM512.256 69.1L510.817 70.4892L510.842 70.5144L510.867 70.5388L512.256 69.1ZM518.556 73L517.941 74.9029L517.966 74.9112L517.992 74.9187L518.556 73ZM535.356 73L535.921 74.9187L535.946 74.9112L535.972 74.9029L535.356 73ZM541.556 69.1L542.97 70.5142L542.97 70.5142L541.556 69.1ZM545.856 60.8L547.792 61.3019L547.794 61.2934L545.856 60.8ZM545.856 33.3L543.918 33.7934L543.92 33.8019L545.856 33.3ZM541.556 25L540.117 26.3892L540.142 26.4144L540.167 26.4388L541.556 25ZM544.856 69.9L543.264 68.6893L543.264 68.6893L544.856 69.9ZM509.056 69.9L510.648 68.6893L510.648 68.6893L509.056 69.9ZM509.056 24.1L507.464 22.8893L507.464 22.8893L509.056 24.1ZM544.856 24.1L546.448 22.8893L546.448 22.8893L544.856 24.1ZM535.972 19.1971C533.445 18.3794 530.422 18 526.956 18V22C530.157 22 532.735 22.3539 534.741 23.0029L535.972 19.1971ZM526.956 18C523.491 18 520.468 18.3794 517.941 19.1971L519.172 23.0029C521.178 22.3539 523.755 22 526.956 22V18ZM517.992 19.1813C515.357 19.9563 512.975 21.4533 510.842 23.5858L513.67 26.4142C515.405 24.68 517.222 23.5771 519.121 23.0187L517.992 19.1813ZM510.842 23.5858C508.634 25.7937 507.104 28.9341 506.118 32.8066L509.994 33.7934C510.875 30.3326 512.145 27.9396 513.67 26.4142L510.842 23.5858ZM506.12 32.7981C505.129 36.6207 504.656 41.3711 504.656 47H508.656C508.656 41.5622 509.117 37.1793 509.992 33.8019L506.12 32.7981ZM504.656 47C504.656 52.6306 505.13 57.4099 506.118 61.2934L509.994 60.3066C509.116 56.8567 508.656 52.4361 508.656 47H504.656ZM506.12 61.3019C507.108 65.1136 508.637 68.2307 510.817 70.4892L513.695 67.7108C512.142 66.1026 510.871 63.6864 509.992 60.2981L506.12 61.3019ZM510.867 70.5388C512.991 72.5898 515.349 74.0644 517.941 74.9029L519.172 71.0971C517.23 70.4689 515.388 69.3436 513.645 67.6612L510.867 70.5388ZM517.992 74.9187C520.5 75.6564 523.504 76 526.956 76V72C523.742 72 521.146 71.677 519.121 71.0813L517.992 74.9187ZM526.956 76C530.409 76 533.413 75.6564 535.921 74.9187L534.792 71.0813C532.767 71.677 530.17 72 526.956 72V76ZM535.972 74.9029C538.571 74.062 540.905 72.5801 542.97 70.5142L540.142 67.6858C538.475 69.3532 536.675 70.4713 534.741 71.0971L535.972 74.9029ZM542.97 70.5142C545.231 68.2538 546.8 65.1275 547.792 61.3019L543.92 60.2981C543.045 63.6725 541.748 66.0796 540.142 67.6858L542.97 70.5142ZM547.794 61.2934C548.783 57.4099 549.256 52.6306 549.256 47H545.256C545.256 52.4361 544.796 56.8567 543.918 60.3066L547.794 61.2934ZM549.256 47C549.256 41.3711 548.783 36.6207 547.792 32.7981L543.92 33.8019C544.796 37.1793 545.256 41.5622 545.256 47H549.256ZM547.794 32.8066C546.805 28.92 545.234 25.7706 542.945 23.5612L540.167 26.4388C541.745 27.9627 543.041 30.3466 543.918 33.7934L547.794 32.8066ZM542.995 23.6108C540.921 21.463 538.563 19.9585 535.921 19.1813L534.792 23.0187C536.683 23.5748 538.458 24.6703 540.117 26.3892L542.995 23.6108ZM543.264 68.6893C540.179 72.746 534.931 75 526.956 75V79C535.648 79 542.334 76.5207 546.448 71.1107L543.264 68.6893ZM526.956 75C518.981 75 513.734 72.746 510.648 68.6893L507.464 71.1107C511.579 76.5207 518.264 79 526.956 79V75ZM510.648 68.6893C507.45 64.4842 505.656 57.3953 505.656 47H501.656C501.656 57.6713 503.463 65.8491 507.464 71.1107L510.648 68.6893ZM505.656 47C505.656 36.6047 507.45 29.5158 510.648 25.3107L507.464 22.8893C503.463 28.1509 501.656 36.3287 501.656 47H505.656ZM510.648 25.3107C513.734 21.254 518.981 19 526.956 19V15C518.264 15 511.579 17.4793 507.464 22.8893L510.648 25.3107ZM526.956 19C534.931 19 540.179 21.254 543.264 25.3107L546.448 22.8893C542.334 17.4793 535.648 15 526.956 15V19ZM543.264 25.3107C546.463 29.5158 548.256 36.6047 548.256 47H552.256C552.256 36.3287 550.45 28.1509 546.448 22.8893L543.264 25.3107ZM548.256 47C548.256 57.3953 546.463 64.4842 543.264 68.6893L546.448 71.1107C550.45 65.8491 552.256 57.6713 552.256 47H548.256ZM605.293 73V71H603.293V73H605.293ZM644.693 73V75H646.693V73H644.693ZM644.693 13.1H646.693L642.881 12.254L644.693 13.1ZM622.193 61.3L620.38 62.1445L622.191 66.0323L624.005 62.146L622.193 61.3ZM599.693 13L601.506 12.1555L597.693 13H599.693ZM599.693 76L599.626 77.9989L601.693 78.0678V76H599.693ZM596.693 75.9H594.693V77.8344L596.626 77.8989L596.693 75.9ZM596.693 5.9V3.9H594.693V5.9H596.693ZM599.693 5.9L601.506 5.05546L600.968 3.9H599.693V5.9ZM622.193 54.2L620.38 55.0445L622.191 58.9323L624.005 55.046L622.193 54.2ZM644.693 6L644.626 4.00111L643.4 4.04199L642.881 5.15402L644.693 6ZM647.693 5.9H649.693V3.83222L647.626 3.90111L647.693 5.9ZM647.693 76L647.688 78L649.693 78.0047V76H647.693ZM605.293 75.9H603.293V77.8953L605.288 77.9L605.293 75.9ZM605.293 75H644.693V71H605.293V75ZM646.693 73V13.1H642.693V73H646.693ZM642.881 12.254L620.381 60.454L624.005 62.146L646.505 13.946L642.881 12.254ZM624.006 60.4555L601.506 12.1555L597.88 13.8445L620.38 62.1445L624.006 60.4555ZM597.693 13V76H601.693V13H597.693ZM599.76 74.0011L596.76 73.9011L596.626 77.8989L599.626 77.9989L599.76 74.0011ZM598.693 75.9V5.9H594.693V75.9H598.693ZM596.693 7.9H599.693V3.9H596.693V7.9ZM597.88 6.74453L620.38 55.0445L624.006 53.3555L601.506 5.05546L597.88 6.74453ZM624.005 55.046L646.505 6.84597L642.881 5.15402L620.381 53.354L624.005 55.046ZM644.76 7.99889L647.76 7.89889L647.626 3.90111L644.626 4.00111L644.76 7.99889ZM645.693 5.9V76H649.693V5.9H645.693ZM647.698 74L605.298 73.9L605.288 77.9L647.688 78L647.698 74ZM607.293 75.9V73H603.293V75.9H607.293ZM670.594 18V16H668.594V18H670.594ZM709.294 18L711.135 18.7798L712.312 16H709.294V18ZM685.794 73.5L683.952 72.7202L683.794 73.094V73.5H685.794ZM685.794 96V98H687.794V96H685.794ZM682.794 96H680.794V98H682.794V96ZM682.794 73.5H684.794V73.094L684.635 72.7202L682.794 73.5ZM659.294 18V16H656.275L657.452 18.7798L659.294 18ZM662.494 18L664.334 17.2178L663.817 16H662.494V18ZM684.294 69.3L682.453 70.0822L684.295 74.4164L686.135 70.0814L684.294 69.3ZM704.794 21L706.635 21.7814L707.815 19H704.794V21ZM670.594 21H668.594V23H670.594V21ZM670.594 20H709.294V16H670.594V20ZM707.452 17.2202L683.952 72.7202L687.635 74.2798L711.135 18.7798L707.452 17.2202ZM683.794 73.5V96H687.794V73.5H683.794ZM685.794 94H682.794V98H685.794V94ZM684.794 96V73.5H680.794V96H684.794ZM684.635 72.7202L661.135 17.2202L657.452 18.7798L680.952 74.2798L684.635 72.7202ZM659.294 20H662.494V16H659.294V20ZM660.653 18.7822L682.453 70.0822L686.134 68.5178L664.334 17.2178L660.653 18.7822ZM686.135 70.0814L706.635 21.7814L702.953 20.2186L682.453 68.5186L686.135 70.0814ZM704.794 19H670.594V23H704.794V19ZM672.594 21V18H668.594V21H672.594ZM792.404 76V78H794.404V76H792.404ZM789.404 76H787.404V78H789.404V76ZM789.404 41H791.404V39H789.404V41ZM753.404 41V39H751.404V41H753.404ZM753.404 76V78H755.404V76H753.404ZM750.404 76H748.404V78H750.404V76ZM750.404 6V4H748.404V6H750.404ZM753.404 6H755.404V4H753.404V6ZM753.404 38H751.404V40H753.404V38ZM789.404 38V40H791.404V38H789.404ZM789.404 6V4H787.404V6H789.404ZM792.404 6H794.404V4H792.404V6ZM792.404 74H789.404V78H792.404V74ZM791.404 76V41H787.404V76H791.404ZM789.404 39H753.404V43H789.404V39ZM751.404 41V76H755.404V41H751.404ZM753.404 74H750.404V78H753.404V74ZM752.404 76V6H748.404V76H752.404ZM750.404 8H753.404V4H750.404V8ZM751.404 6V38H755.404V6H751.404ZM753.404 40H789.404V36H753.404V40ZM791.404 38V6H787.404V38H791.404ZM789.404 8H792.404V4H789.404V8ZM790.404 6V76H794.404V6H790.404ZM811.82 18V16H809.82V18H811.82ZM814.82 18H816.82V16H814.82V18ZM814.82 76V78H816.82V76H814.82ZM811.82 76H809.82V78H811.82V76ZM811.82 20H814.82V16H811.82V20ZM812.82 18V76H816.82V18H812.82ZM814.82 74H811.82V78H814.82V74ZM813.82 76V18H809.82V76H813.82ZM858.593 54.4L856.861 55.3994L857.856 57.1247L859.585 56.1365L858.593 54.4ZM857.093 51.8L856.101 50.0635L854.357 51.0599L855.361 52.7994L857.093 51.8ZM862.693 48.6L861.728 46.8481L861.714 46.8557L861.701 46.8635L862.693 48.6ZM836.793 21V19H834.793V21H836.793ZM836.793 96V98H838.793V96H836.793ZM833.793 96H831.793V98H833.793V96ZM833.793 18V16H831.793V18H833.793ZM865.893 22.9L864.712 24.5143L864.72 24.5201L864.728 24.5258L865.893 22.9ZM864.193 51.2L863.216 49.4546L863.209 49.459L863.201 49.4635L864.193 51.2ZM860.325 53.4006L858.825 50.8006L855.361 52.7994L856.861 55.3994L860.325 53.4006ZM858.085 53.5365L863.685 50.3365L861.701 46.8635L856.101 50.0635L858.085 53.5365ZM863.658 50.3519C866.237 48.9314 868.25 47.0428 869.605 44.6657C870.958 42.2941 871.593 39.5474 871.593 36.5H867.593C867.593 38.986 867.078 41.0226 866.131 42.6843C865.186 44.3405 863.749 45.7353 861.728 46.8481L863.658 50.3519ZM871.593 36.5C871.593 30.7378 869.35 26.1973 864.791 23.2033C860.379 20.3056 854.015 19 845.993 19V23C853.704 23 859.14 24.2777 862.595 26.5467C865.903 28.7193 867.593 31.9288 867.593 36.5H871.593ZM845.993 19H836.793V23H845.993V19ZM834.793 21V96H838.793V21H834.793ZM836.793 94H833.793V98H836.793V94ZM835.793 96V18H831.793V96H835.793ZM833.793 20H845.993V16H833.793V20ZM845.993 20C854.6 20 860.737 21.6072 864.712 24.5143L867.074 21.2857C862.115 17.6595 854.986 16 845.993 16V20ZM864.728 24.5258C868.63 27.3214 870.593 31.227 870.593 36.5H874.593C874.593 30.0397 872.089 24.8786 867.058 21.2742L864.728 24.5258ZM870.593 36.5C870.593 39.5487 869.955 42.0856 868.756 44.1827C867.56 46.2759 865.744 48.0405 863.216 49.4546L865.17 52.9454C868.242 51.2262 870.626 48.974 872.229 46.1673C873.831 43.3644 874.593 40.118 874.593 36.5H870.593ZM863.201 49.4635L857.601 52.6635L859.585 56.1365L865.185 52.9365L863.201 49.4635ZM911.523 54.4L909.79 55.3994L910.786 57.1247L912.515 56.1365L911.523 54.4ZM910.023 51.8L909.03 50.0635L907.287 51.0599L908.29 52.7994L910.023 51.8ZM915.623 48.6L914.658 46.8481L914.644 46.8557L914.63 46.8635L915.623 48.6ZM889.723 21V19H887.723V21H889.723ZM889.723 96V98H891.723V96H889.723ZM886.723 96H884.723V98H886.723V96ZM886.723 18V16H884.723V18H886.723ZM918.823 22.9L917.642 24.5143L917.65 24.5201L917.658 24.5258L918.823 22.9ZM917.123 51.2L916.146 49.4546L916.138 49.459L916.13 49.4635L917.123 51.2ZM913.255 53.4006L911.755 50.8006L908.29 52.7994L909.79 55.3994L913.255 53.4006ZM911.015 53.5365L916.615 50.3365L914.63 46.8635L909.03 50.0635L911.015 53.5365ZM916.587 50.3519C919.167 48.9314 921.179 47.0428 922.535 44.6657C923.887 42.2941 924.523 39.5474 924.523 36.5H920.523C920.523 38.986 920.008 41.0226 919.06 42.6843C918.116 44.3405 916.678 45.7353 914.658 46.8481L916.587 50.3519ZM924.523 36.5C924.523 30.7378 922.279 26.1973 917.721 23.2033C913.309 20.3056 906.945 19 898.923 19V23C906.634 23 912.07 24.2777 915.525 26.5467C918.833 28.7193 920.523 31.9288 920.523 36.5H924.523ZM898.923 19H889.723V23H898.923V19ZM887.723 21V96H891.723V21H887.723ZM889.723 94H886.723V98H889.723V94ZM888.723 96V18H884.723V96H888.723ZM886.723 20H898.923V16H886.723V20ZM898.923 20C907.53 20 913.667 21.6072 917.642 24.5143L920.003 21.2857C915.045 17.6595 907.915 16 898.923 16V20ZM917.658 24.5258C921.56 27.3214 923.523 31.227 923.523 36.5H927.523C927.523 30.0397 925.019 24.8786 919.987 21.2742L917.658 24.5258ZM923.523 36.5C923.523 39.5487 922.885 42.0856 921.686 44.1827C920.49 46.2759 918.673 48.0405 916.146 49.4546L918.099 52.9454C921.172 51.2262 923.555 48.974 925.159 46.1673C926.761 43.3644 927.523 40.118 927.523 36.5H923.523ZM916.13 49.4635L910.53 52.6635L912.515 56.1365L918.115 52.9365L916.13 49.4635ZM968.852 21.1L968.237 23.0029L968.262 23.0112L968.288 23.0187L968.852 21.1ZM952.052 21.1L952.617 23.0187L952.642 23.0112L952.668 23.0029L952.052 21.1ZM945.752 25L944.338 23.5858L944.338 23.5858L945.752 25ZM941.552 33.3L943.488 33.8019L943.491 33.7934L941.552 33.3ZM941.552 60.8L939.614 61.2934L939.616 61.3019L941.552 60.8ZM945.752 69.1L944.314 70.4892L944.338 70.5144L944.363 70.5388L945.752 69.1ZM952.052 73L951.437 74.9029L951.462 74.9112L951.488 74.9187L952.052 73ZM968.852 73L969.417 74.9187L969.442 74.9112L969.468 74.9029L968.852 73ZM975.052 69.1L976.467 70.5142L976.467 70.5142L975.052 69.1ZM979.352 60.8L981.288 61.3019L981.291 61.2934L979.352 60.8ZM979.352 33.3L977.414 33.7934L977.416 33.8019L979.352 33.3ZM975.052 25L973.614 26.3892L973.638 26.4144L973.663 26.4388L975.052 25ZM978.352 69.9L976.76 68.6893L976.76 68.6893L978.352 69.9ZM942.552 69.9L944.144 68.6893L944.144 68.6893L942.552 69.9ZM942.552 24.1L940.96 22.8893L940.96 22.8893L942.552 24.1ZM978.352 24.1L979.944 22.8893L979.944 22.8893L978.352 24.1ZM969.468 19.1971C966.941 18.3794 963.918 18 960.452 18V22C963.653 22 966.231 22.3539 968.237 23.0029L969.468 19.1971ZM960.452 18C956.987 18 953.964 18.3794 951.437 19.1971L952.668 23.0029C954.674 22.3539 957.251 22 960.452 22V18ZM951.488 19.1813C948.853 19.9563 946.471 21.4533 944.338 23.5858L947.167 26.4142C948.901 24.68 950.718 23.5771 952.617 23.0187L951.488 19.1813ZM944.338 23.5858C942.13 25.7937 940.6 28.9341 939.614 32.8066L943.491 33.7934C944.371 30.3326 945.641 27.9396 947.167 26.4142L944.338 23.5858ZM939.616 32.7981C938.625 36.6207 938.152 41.3711 938.152 47H942.152C942.152 41.5622 942.613 37.1793 943.488 33.8019L939.616 32.7981ZM938.152 47C938.152 52.6306 938.626 57.4099 939.614 61.2934L943.491 60.3066C942.612 56.8567 942.152 52.4361 942.152 47H938.152ZM939.616 61.3019C940.605 65.1136 942.133 68.2307 944.314 70.4892L947.191 67.7108C945.638 66.1026 944.367 63.6864 943.488 60.2981L939.616 61.3019ZM944.363 70.5388C946.487 72.5898 948.845 74.0644 951.437 74.9029L952.668 71.0971C950.726 70.4689 948.884 69.3436 947.142 67.6612L944.363 70.5388ZM951.488 74.9187C953.996 75.6564 957 76 960.452 76V72C957.238 72 954.642 71.677 952.617 71.0813L951.488 74.9187ZM960.452 76C963.905 76 966.909 75.6564 969.417 74.9187L968.288 71.0813C966.263 71.677 963.666 72 960.452 72V76ZM969.468 74.9029C972.067 74.062 974.401 72.5801 976.467 70.5142L973.638 67.6858C971.971 69.3532 970.171 70.4713 968.237 71.0971L969.468 74.9029ZM976.467 70.5142C978.727 68.2538 980.297 65.1275 981.288 61.3019L977.416 60.2981C976.542 63.6725 975.244 66.0796 973.638 67.6858L976.467 70.5142ZM981.291 61.2934C982.279 57.4099 982.752 52.6306 982.752 47H978.752C978.752 52.4361 978.292 56.8567 977.414 60.3066L981.291 61.2934ZM982.752 47C982.752 41.3711 982.279 36.6207 981.288 32.7981L977.416 33.8019C978.292 37.1793 978.752 41.5622 978.752 47H982.752ZM981.291 32.8066C980.301 28.92 978.73 25.7706 976.442 23.5612L973.663 26.4388C975.241 27.9627 976.537 30.3466 977.414 33.7934L981.291 32.8066ZM976.491 23.6108C974.417 21.463 972.059 19.9585 969.417 19.1813L968.288 23.0187C970.179 23.5748 971.954 24.6703 973.614 26.3892L976.491 23.6108ZM976.76 68.6893C973.675 72.746 968.427 75 960.452 75V79C969.144 79 975.83 76.5207 979.944 71.1107L976.76 68.6893ZM960.452 75C952.478 75 947.23 72.746 944.144 68.6893L940.96 71.1107C945.075 76.5207 951.761 79 960.452 79V75ZM944.144 68.6893C940.946 64.4842 939.152 57.3953 939.152 47H935.152C935.152 57.6713 936.959 65.8491 940.96 71.1107L944.144 68.6893ZM939.152 47C939.152 36.6047 940.946 29.5158 944.144 25.3107L940.96 22.8893C936.959 28.1509 935.152 36.3287 935.152 47H939.152ZM944.144 25.3107C947.23 21.254 952.478 19 960.452 19V15C951.761 15 945.075 17.4793 940.96 22.8893L944.144 25.3107ZM960.452 19C968.427 19 973.675 21.254 976.76 25.3107L979.944 22.8893C975.83 17.4793 969.144 15 960.452 15V19ZM976.76 25.3107C979.959 29.5158 981.752 36.6047 981.752 47H985.752C985.752 36.3287 983.946 28.1509 979.944 22.8893L976.76 25.3107ZM981.752 47C981.752 57.3953 979.959 64.4842 976.76 68.6893L979.944 71.1107C983.946 65.8491 985.752 57.6713 985.752 47H981.752ZM1003.2 69.9L1004.79 68.6893L1004.79 68.6893L1003.2 69.9ZM1003.2 24.1L1001.6 22.8893L1001.6 22.8893L1003.2 24.1ZM1039.1 23.9L1040.44 25.3799L1041.83 24.1191L1040.66 22.6534L1039.1 23.9ZM1036.9 25.9L1035.29 27.0956L1036.61 28.8625L1038.24 27.3799L1036.9 25.9ZM1012.7 21.1L1013.26 23.0187L1013.29 23.0112L1013.31 23.0029L1012.7 21.1ZM1006.4 25L1004.98 23.5858L1004.98 23.5858L1006.4 25ZM1002.2 33.3L1004.13 33.8019L1004.14 33.7934L1002.2 33.3ZM1002.2 60.8L1000.26 61.2934L1000.26 61.3019L1002.2 60.8ZM1006.4 69.1L1004.96 70.4892L1004.98 70.5144L1005.01 70.5388L1006.4 69.1ZM1012.7 73L1012.08 74.9029L1012.11 74.9112L1012.13 74.9187L1012.7 73ZM1036.9 68.1L1038.24 66.6201L1036.61 65.1375L1035.29 66.9044L1036.9 68.1ZM1039.1 70.1L1040.66 71.3466L1041.83 69.8809L1040.44 68.6201L1039.1 70.1ZM1004.79 68.6893C1001.59 64.4842 999.797 57.3953 999.797 47H995.797C995.797 57.6713 997.603 65.8491 1001.6 71.1107L1004.79 68.6893ZM999.797 47C999.797 36.6047 1001.59 29.5158 1004.79 25.3107L1001.6 22.8893C997.603 28.1509 995.797 36.3287 995.797 47H999.797ZM1004.79 25.3107C1007.87 21.254 1013.12 19 1021.1 19V15C1012.41 15 1005.72 17.4793 1001.6 22.8893L1004.79 25.3107ZM1021.1 19C1029.09 19 1034.39 21.1978 1037.53 25.1466L1040.66 22.6534C1036.48 17.4022 1029.77 15 1021.1 15V19ZM1037.75 22.4201L1035.55 24.4201L1038.24 27.3799L1040.44 25.3799L1037.75 22.4201ZM1038.5 24.7043C1035.02 20.0355 1028.97 18 1021.1 18V22C1028.42 22 1032.91 23.8978 1035.29 27.0956L1038.5 24.7043ZM1021.1 18C1017.63 18 1014.61 18.3794 1012.08 19.1971L1013.31 23.0029C1015.32 22.3539 1017.9 22 1021.1 22V18ZM1012.13 19.1813C1009.5 19.9563 1007.12 21.4533 1004.98 23.5858L1007.81 26.4142C1009.55 24.68 1011.36 23.5771 1013.26 23.0187L1012.13 19.1813ZM1004.98 23.5858C1002.77 25.7937 1001.24 28.9341 1000.26 32.8066L1004.14 33.7934C1005.02 30.3326 1006.29 27.9396 1007.81 26.4142L1004.98 23.5858ZM1000.26 32.7981C999.27 36.6207 998.797 41.3711 998.797 47H1002.8C1002.8 41.5622 1003.26 37.1793 1004.13 33.8019L1000.26 32.7981ZM998.797 47C998.797 52.6306 999.27 57.4099 1000.26 61.2934L1004.14 60.3066C1003.26 56.8567 1002.8 52.4361 1002.8 47H998.797ZM1000.26 61.3019C1001.25 65.1136 1002.78 68.2307 1004.96 70.4892L1007.84 67.7108C1006.28 66.1026 1005.01 63.6864 1004.13 60.2981L1000.26 61.3019ZM1005.01 70.5388C1007.13 72.5898 1009.49 74.0644 1012.08 74.9029L1013.31 71.0971C1011.37 70.4689 1009.53 69.3436 1007.79 67.6612L1005.01 70.5388ZM1012.13 74.9187C1014.64 75.6564 1017.64 76 1021.1 76V72C1017.88 72 1015.29 71.677 1013.26 71.0813L1012.13 74.9187ZM1021.1 76C1028.97 76 1035.02 73.9645 1038.5 69.2956L1035.29 66.9044C1032.91 70.1022 1028.42 72 1021.1 72V76ZM1035.55 69.5799L1037.75 71.5799L1040.44 68.6201L1038.24 66.6201L1035.55 69.5799ZM1037.53 68.8534C1034.39 72.8022 1029.09 75 1021.1 75V79C1029.77 79 1036.48 76.5978 1040.66 71.3466L1037.53 68.8534ZM1021.1 75C1013.12 75 1007.87 72.746 1004.79 68.6893L1001.6 71.1107C1005.72 76.5207 1012.41 79 1021.1 79V75ZM1059.31 73V71H1057.31V73H1059.31ZM1091.91 73V75H1094.93L1093.75 72.2186L1091.91 73ZM1071.41 24.7L1073.25 23.9186L1071.41 19.5836L1069.57 23.9178L1071.41 24.7ZM1049.61 76V78H1050.93L1051.45 76.7822L1049.61 76ZM1046.41 76L1044.57 75.2197L1043.39 78H1046.41V76ZM1071.41 17L1073.25 16.2197L1071.41 11.8738L1069.57 16.2197L1071.41 17ZM1096.41 76V78H1099.43L1098.25 75.2197L1096.41 76ZM1059.31 76H1057.31V78H1059.31V76ZM1059.31 75H1091.91V71H1059.31V75ZM1093.75 72.2186L1073.25 23.9186L1069.57 25.4814L1090.07 73.7814L1093.75 72.2186ZM1069.57 23.9178L1047.77 75.2178L1051.45 76.7822L1073.25 25.4822L1069.57 23.9178ZM1049.61 74H1046.41V78H1049.61V74ZM1048.25 76.7803L1073.25 17.7803L1069.57 16.2197L1044.57 75.2197L1048.25 76.7803ZM1069.57 17.7803L1094.57 76.7803L1098.25 75.2197L1073.25 16.2197L1069.57 17.7803ZM1096.41 74H1059.31V78H1096.41V74ZM1061.31 76V73H1057.31V76H1061.31ZM1117.22 73V71H1115.22V73H1117.22ZM1155.82 73V75H1157.82V73H1155.82ZM1155.82 22.2H1157.82V17.3716L1154.4 20.7858L1155.82 22.2ZM1133.32 44.7L1131.9 46.1142L1133.32 47.5284L1134.73 46.1142L1133.32 44.7ZM1110.82 22.2L1112.23 20.7858L1108.82 17.3716V22.2H1110.82ZM1110.82 76L1110.75 77.9989L1112.82 78.0678V76H1110.82ZM1107.82 75.9H1105.82V77.8344L1107.75 77.8989L1107.82 75.9ZM1107.82 18V16H1105.82V18H1107.82ZM1110.82 18L1112.23 16.5858L1111.64 16H1110.82V18ZM1133.32 40.5L1131.9 41.9142L1133.32 43.3284L1134.73 41.9142L1133.32 40.5ZM1155.82 18V16H1154.99L1154.4 16.5858L1155.82 18ZM1158.82 18H1160.82V16H1158.82V18ZM1158.82 76L1158.81 78L1160.82 78.0048V76H1158.82ZM1117.22 75.9H1115.22V77.8952L1117.21 77.9L1117.22 75.9ZM1117.22 75H1155.82V71H1117.22V75ZM1157.82 73V22.2H1153.82V73H1157.82ZM1154.4 20.7858L1131.9 43.2858L1134.73 46.1142L1157.23 23.6142L1154.4 20.7858ZM1134.73 43.2858L1112.23 20.7858L1109.4 23.6142L1131.9 46.1142L1134.73 43.2858ZM1108.82 22.2V76H1112.82V22.2H1108.82ZM1110.88 74.0011L1107.88 73.9011L1107.75 77.8989L1110.75 77.9989L1110.88 74.0011ZM1109.82 75.9V18H1105.82V75.9H1109.82ZM1107.82 20H1110.82V16H1107.82V20ZM1109.4 19.4142L1131.9 41.9142L1134.73 39.0858L1112.23 16.5858L1109.4 19.4142ZM1134.73 41.9142L1157.23 19.4142L1154.4 16.5858L1131.9 39.0858L1134.73 41.9142ZM1155.82 20H1158.82V16H1155.82V20ZM1156.82 18V76H1160.82V18H1156.82ZM1158.82 74L1117.22 73.9L1117.21 77.9L1158.81 78L1158.82 74ZM1119.22 75.9V73H1115.22V75.9H1119.22ZM1202.64 54.4L1200.9 55.3994L1201.9 57.1247L1203.63 56.1365L1202.64 54.4ZM1201.14 51.8L1200.14 50.0635L1198.4 51.0599L1199.4 52.7994L1201.14 51.8ZM1206.74 48.6L1205.77 46.8481L1205.76 46.8557L1205.74 46.8635L1206.74 48.6ZM1180.84 21V19H1178.84V21H1180.84ZM1180.84 96V98H1182.84V96H1180.84ZM1177.84 96H1175.84V98H1177.84V96ZM1177.84 18V16H1175.84V18H1177.84ZM1209.94 22.9L1208.76 24.5143L1208.76 24.5201L1208.77 24.5258L1209.94 22.9ZM1208.24 51.2L1207.26 49.4546L1207.25 49.459L1207.24 49.4635L1208.24 51.2ZM1204.37 53.4006L1202.87 50.8006L1199.4 52.7994L1200.9 55.3994L1204.37 53.4006ZM1202.13 53.5365L1207.73 50.3365L1205.74 46.8635L1200.14 50.0635L1202.13 53.5365ZM1207.7 50.3519C1210.28 48.9314 1212.29 47.0428 1213.65 44.6657C1215 42.2941 1215.64 39.5474 1215.64 36.5H1211.64C1211.64 38.986 1211.12 41.0226 1210.17 42.6843C1209.23 44.3405 1207.79 45.7353 1205.77 46.8481L1207.7 50.3519ZM1215.64 36.5C1215.64 30.7378 1213.39 26.1973 1208.83 23.2033C1204.42 20.3056 1198.06 19 1190.04 19V23C1197.75 23 1203.18 24.2777 1206.64 26.5467C1209.95 28.7193 1211.64 31.9288 1211.64 36.5H1215.64ZM1190.04 19H1180.84V23H1190.04V19ZM1178.84 21V96H1182.84V21H1178.84ZM1180.84 94H1177.84V98H1180.84V94ZM1179.84 96V18H1175.84V96H1179.84ZM1177.84 20H1190.04V16H1177.84V20ZM1190.04 20C1198.64 20 1204.78 21.6072 1208.76 24.5143L1211.12 21.2857C1206.16 17.6595 1199.03 16 1190.04 16V20ZM1208.77 24.5258C1212.67 27.3214 1214.64 31.227 1214.64 36.5H1218.64C1218.64 30.0397 1216.13 24.8786 1211.1 21.2742L1208.77 24.5258ZM1214.64 36.5C1214.64 39.5487 1214 42.0856 1212.8 44.1827C1211.6 46.2759 1209.79 48.0405 1207.26 49.4546L1209.21 52.9454C1212.29 51.2262 1214.67 48.974 1216.27 46.1673C1217.87 43.3644 1218.64 40.118 1218.64 36.5H1214.64ZM1207.24 49.4635L1201.64 52.6635L1203.63 56.1365L1209.23 52.9365L1207.24 49.4635ZM1232.77 18H1234.77V16H1232.77V18ZM1237.47 68L1235.88 69.2207L1235.89 69.2351L1235.9 69.2494L1237.47 68ZM1263.57 68L1261.99 66.7632L1261.99 66.7667L1263.57 68ZM1268.37 18V16H1266.37V18H1268.37ZM1271.37 18H1273.37V16H1271.37V18ZM1229.77 18V16H1227.77V18H1229.77ZM1230.77 18V47H1234.77V18H1230.77ZM1230.77 47C1230.77 57.0229 1232.32 64.6017 1235.88 69.2207L1239.05 66.7793C1236.34 63.2649 1234.77 56.8438 1234.77 47H1230.77ZM1235.9 69.2494C1239.52 73.7658 1244.48 76 1250.57 76V72C1245.58 72 1241.81 70.2342 1239.03 66.7506L1235.9 69.2494ZM1250.57 76C1256.65 76 1261.59 73.7647 1265.14 69.2333L1261.99 66.7667C1259.27 70.2353 1255.55 72 1250.57 72V76ZM1265.14 69.2368C1268.77 64.6149 1270.37 57.0279 1270.37 47H1266.37C1266.37 56.8387 1264.76 63.2518 1261.99 66.7632L1265.14 69.2368ZM1270.37 47V18H1266.37V47H1270.37ZM1268.37 20H1271.37V16H1268.37V20ZM1269.37 18V47H1273.37V18H1269.37ZM1269.37 47C1269.37 56.8306 1267.65 63.8483 1264.52 68.3604C1261.49 72.7398 1256.95 75 1250.57 75V79C1258.05 79 1263.91 76.2602 1267.81 70.6396C1271.61 65.1517 1273.37 57.1694 1273.37 47H1269.37ZM1250.57 75C1244.18 75 1239.65 72.7398 1236.61 68.3604C1233.48 63.8483 1231.77 56.8306 1231.77 47H1227.77C1227.77 57.1694 1229.52 65.1517 1233.32 70.6396C1237.22 76.2602 1243.08 79 1250.57 79V75ZM1231.77 47V18H1227.77V47H1231.77ZM1229.77 20H1232.77V16H1229.77V20ZM1322.26 22.3L1323.74 23.6453L1324.99 22.2733L1323.71 20.926L1322.26 22.3ZM1320.26 24.5L1318.86 25.929L1320.34 27.3811L1321.74 25.8453L1320.26 24.5ZM1293.26 39.9L1292.05 41.4899L1292.06 41.5001L1292.07 41.5101L1293.26 39.9ZM1302.46 44.2L1301.92 46.1271L1301.93 46.1295L1302.46 44.2ZM1313.36 47.4L1312.76 49.3077L1312.78 49.3143L1312.8 49.3204L1313.36 47.4ZM1322.66 52.7L1321.26 54.1329L1321.27 54.1425L1321.28 54.1519L1322.66 52.7ZM1320.76 73.2L1319.59 71.5764L1319.59 71.5764L1320.76 73.2ZM1293.76 75.9L1293.23 77.8287L1293.24 77.8312L1293.76 75.9ZM1286.16 71.8L1284.68 70.4547L1283.45 71.8124L1284.69 73.1588L1286.16 71.8ZM1288.16 69.6L1289.51 68.1293L1288.03 66.7647L1286.68 68.2547L1288.16 69.6ZM1318.46 70.7L1317.29 69.0769L1317.28 69.0825L1317.28 69.0882L1318.46 70.7ZM1319.66 54.2L1320.92 52.6503L1320.92 52.6503L1319.66 54.2ZM1310.36 49.6L1309.79 51.5176L1309.81 51.5238L1309.83 51.5295L1310.36 49.6ZM1299.46 46.4L1298.86 48.3077L1298.88 48.3143L1298.9 48.3204L1299.46 46.4ZM1291.56 20.6L1292.73 22.2189L1292.74 22.2148L1291.56 20.6ZM1304.66 18.8C1312.71 18.8 1317.9 20.5992 1320.81 23.674L1323.71 20.926C1319.69 16.6674 1313.14 14.8 1304.66 14.8V18.8ZM1320.78 20.9547L1318.78 23.1546L1321.74 25.8453L1323.74 23.6453L1320.78 20.9547ZM1321.66 23.071C1317.92 19.4144 1312.24 17.8 1305.06 17.8V21.8C1311.75 21.8 1316.19 23.319 1318.86 25.929L1321.66 23.071ZM1305.06 17.8C1299.65 17.8 1295.22 18.8664 1292.11 21.3344C1288.92 23.8719 1287.46 27.6208 1287.46 32.2H1291.46C1291.46 28.5125 1292.6 26.0614 1294.6 24.4656C1296.7 22.8002 1300.07 21.8 1305.06 21.8V17.8ZM1287.46 32.2C1287.46 36.0206 1289.01 39.1764 1292.05 41.4899L1294.47 38.3101C1292.44 36.7569 1291.46 34.7794 1291.46 32.2H1287.46ZM1292.07 41.5101C1294.84 43.5454 1298.13 45.0738 1301.92 46.127L1302.99 42.273C1299.59 41.3262 1296.75 39.9879 1294.45 38.2899L1292.07 41.5101ZM1301.93 46.1295C1305.58 47.1228 1309.18 48.1822 1312.76 49.3077L1313.96 45.4923C1310.34 44.3512 1306.68 43.2772 1302.99 42.2705L1301.93 46.1295ZM1312.8 49.3204C1316.18 50.3031 1318.98 51.9129 1321.26 54.1329L1324.05 51.2671C1321.27 48.5538 1317.87 46.6303 1313.92 45.4796L1312.8 49.3204ZM1321.28 54.1519C1323.37 56.1244 1324.46 58.739 1324.46 62.2H1328.46C1328.46 57.7943 1327.02 54.0756 1324.03 51.2481L1321.28 54.1519ZM1324.46 62.2C1324.46 66.1431 1322.88 69.211 1319.59 71.5764L1321.93 74.8236C1326.24 71.7223 1328.46 67.4569 1328.46 62.2H1324.46ZM1319.59 71.5764C1316.27 73.9653 1311.25 75.3 1304.26 75.3V79.3C1311.67 79.3 1317.65 77.9014 1321.93 74.8236L1319.59 71.5764ZM1304.26 75.3C1300.9 75.3 1297.58 74.8572 1294.28 73.9688L1293.24 77.8312C1296.87 78.8095 1300.55 79.3 1304.26 79.3V75.3ZM1294.29 73.9713C1291.1 73.0959 1288.95 71.8728 1287.63 70.4412L1284.69 73.1588C1286.7 75.3272 1289.62 76.8375 1293.23 77.8287L1294.29 73.9713ZM1287.64 73.1453L1289.64 70.9453L1286.68 68.2547L1284.68 70.4547L1287.64 73.1453ZM1286.8 71.0707C1290.73 74.6857 1296.55 76.3 1303.86 76.3V72.3C1297.04 72.3 1292.39 70.7809 1289.51 68.1293L1286.8 71.0707ZM1303.86 76.3C1310.52 76.3 1315.88 75.0743 1319.64 72.3118L1317.28 69.0882C1314.5 71.1257 1310.13 72.3 1303.86 72.3V76.3ZM1319.63 72.3231C1323.32 69.6652 1325.46 66.3216 1325.46 62.3H1321.46C1321.46 64.6784 1320.27 66.9348 1317.29 69.0769L1319.63 72.3231ZM1325.46 62.3C1325.46 58.3794 1323.93 55.1053 1320.92 52.6503L1318.4 55.7497C1320.45 57.428 1321.46 59.5539 1321.46 62.3H1325.46ZM1320.92 52.6503C1318.14 50.3804 1314.78 48.7322 1310.89 47.6705L1309.83 51.5295C1313.27 52.4678 1316.11 53.8863 1318.4 55.7497L1320.92 52.6503ZM1310.93 47.6824C1307.32 46.6148 1303.69 45.5472 1300.02 44.4796L1298.9 48.3204C1302.56 49.3861 1306.19 50.4519 1309.79 51.5176L1310.93 47.6824ZM1300.06 44.4923C1296.71 43.4387 1293.91 41.8446 1291.61 39.7289L1288.9 42.6711C1291.67 45.2221 1295.01 47.0946 1298.86 48.3077L1300.06 44.4923ZM1291.61 39.7289C1289.54 37.8157 1288.46 35.3053 1288.46 32H1284.46C1284.46 36.2947 1285.91 39.9176 1288.9 42.6711L1291.61 39.7289ZM1288.46 32C1288.46 27.3474 1289.97 24.2243 1292.73 22.2188L1290.38 18.9812C1286.35 21.9091 1284.46 26.3859 1284.46 32H1288.46ZM1292.74 22.2148C1295.79 19.9839 1299.72 18.8 1304.66 18.8V14.8C1299.07 14.8 1294.26 16.1494 1290.38 18.9852L1292.74 22.2148ZM1369.91 60.2V58.2H1367.91V60.2H1369.91ZM1376.51 60.2H1378.51V58.2H1376.51V60.2ZM1376.51 66V68H1378.51V66H1376.51ZM1369.91 66H1367.91V68H1369.91V66ZM1369.91 40.2V38.2H1367.91V40.2H1369.91ZM1376.51 40.2H1378.51V38.2H1376.51V40.2ZM1376.51 46V48H1378.51V46H1376.51ZM1369.91 46H1367.91V48H1369.91V46ZM1369.91 62.2H1376.51V58.2H1369.91V62.2ZM1374.51 60.2V66H1378.51V60.2H1374.51ZM1376.51 64H1369.91V68H1376.51V64ZM1371.91 66V60.2H1367.91V66H1371.91ZM1369.91 42.2H1376.51V38.2H1369.91V42.2ZM1374.51 40.2V46H1378.51V40.2H1374.51ZM1376.51 44H1369.91V48H1376.51V44ZM1371.91 46V40.2H1367.91V46H1371.91ZM1392.23 81.4L1390.66 82.6414L1391.82 84.104L1393.36 83.0506L1392.23 81.4ZM1390.33 79L1389.2 77.345L1387.42 78.5537L1388.76 80.2414L1390.33 79ZM1390.33 3L1388.76 1.75859L1387.42 3.44629L1389.2 4.65495L1390.33 3ZM1392.23 0.599999L1393.36 -1.05062L1391.82 -2.104L1390.66 -0.641407L1392.23 0.599999ZM1399.73 28.1V53.9H1403.73V28.1H1399.73ZM1399.73 53.9C1399.73 67.7651 1396.56 76.0103 1391.1 79.7494L1393.36 83.0506C1400.56 78.123 1403.73 68.0349 1403.73 53.9H1399.73ZM1393.79 80.1586L1391.89 77.7586L1388.76 80.2414L1390.66 82.6414L1393.79 80.1586ZM1391.45 80.655C1397.94 76.2486 1400.73 66.9257 1400.73 53.9H1396.73C1396.73 66.741 1393.91 74.1514 1389.2 77.345L1391.45 80.655ZM1400.73 53.9V28.1H1396.73V53.9H1400.73ZM1400.73 28.1C1400.73 15.0743 1397.94 5.75143 1391.45 1.34505L1389.2 4.65495C1393.91 7.84856 1396.73 15.259 1396.73 28.1H1400.73ZM1391.89 4.2414L1393.79 1.84141L1390.66 -0.641407L1388.76 1.75859L1391.89 4.2414ZM1391.1 2.25061C1396.56 5.98969 1399.73 14.2349 1399.73 28.1H1403.73C1403.73 13.9651 1400.56 3.87697 1393.36 -1.05062L1391.1 2.25061Z" fill="url(#paint0_linear_2_3)" mask="url(#path-1-outside-1_2_3)"/>
<defs>
<linearGradient id="paint0_linear_2_3" x1="704.5" y1="-17" x2="704.5" y2="100" gradientUnits="userSpaceOnUse">
<stop stop-color="#00FF29"/>
<stop offset="0.213542" stop-color="#D2FFEF"/>
<stop offset="1" stop-color="#00FF29"/>
</linearGradient>
</defs>
</svg>
